<svg xmlns="http://www.w3.org/2000/svg" viewBox="0 0 48 48" width="48" height="48" fill="none">
  <defs>
    <linearGradient id="bg" x1="0" y1="0" x2="0" y2="48" gradientUnits="userSpaceOnUse">
      <stop stop-color="#38A8F5"/>
      <stop offset="1" stop-color="#1583E0"/>
    </linearGradient>
  </defs>
  <rect width="48" height="48" rx="11" fill="url(#bg)"/>
  <rect x="22.5" y="8" width="2.5" height="8" rx="1.25" fill="#ffffff"/>
  <rect x="17" y="15" width="10" height="10" rx="1.5" fill="#ffffff"/>
  <rect x="27" y="18" width="4.5" height="7" rx="1" fill="#BFE3FF"/>
  <path d="M10 25.5h28l-3.2 8.4a2.6 2.6 0 0 1-2.43 1.68H15.63a2.6 2.6 0 0 1-2.43-1.68L10 25.5Z" fill="#ffffff"/>
  <path d="M7.5 40c2.4 0 2.4 2.1 4.8 2.1s2.4-2.1 4.8-2.1 2.4 2.1 4.8 2.1 2.4-2.1 4.8-2.1 2.4 2.1 4.8 2.1 2.4-2.1 4.8-2.1" stroke="#DCEEFF" stroke-width="2.2" stroke-linecap="round"/>
</svg>
